
<global>
amp_veltrack=-10.0000
ampeg_attack=0.002
ampeg_release=2.50
</global>

<group>
group_label=RR1_0-42
seq_length=4
seq_position=1
xf_cccurve=gain
xfin_hicc1=42
xfout_hicc1=84
xfout_locc1=42

<region>
end=47000
fade_out=46150
hivel=127
key=A#2
lovel=0
sample=Cellos_staccato_PP_A#2_RR1.opus
</region>

<region>
end=47000
fade_out=46150
hivel=127
key=A#3
lovel=0
offset=1681
sample=Cellos_staccato_PP_A#3_RR1.opus
</region>

<region>
end=47000
fade_out=46150
hivel=127
key=A#4
lovel=0
offset=383
sample=Cellos_staccato_PP_A#4_RR1.opus
</region>

<region>
end=47000
fade_out=46150
hivel=127
key=A2
lovel=0
sample=Cellos_staccato_PP_A2_RR1.opus
</region>

<region>
end=47000
fade_out=46150
hivel=127
key=A3
lovel=0
offset=1354
sample=Cellos_staccato_PP_A3_RR1.opus
</region>

<region>
end=47000
fade_out=46150
hivel=127
key=A4
lovel=0
offset=1056
sample=Cellos_staccato_PP_A4_RR1.opus
</region>

<region>
end=47000
fade_out=46150
hivel=127
key=B2
lovel=0
offset=2006
sample=Cellos_staccato_PP_B2_RR1.opus
</region>

<region>
end=47000
fade_out=46150
hivel=127
key=B3
lovel=0
offset=1034
sample=Cellos_staccato_PP_B3_RR1.opus
</region>

<region>
end=47000
fade_out=46150
hivel=127
key=B4
lovel=0
offset=1279
sample=Cellos_staccato_PP_B4_RR1.opus
</region>

<region>
end=47000
fade_out=46150
hivel=127
key=C#2
lovel=0
offset=1083
sample=Cellos_staccato_PP_C#2_RR1.opus
</region>

<region>
end=47000
fade_out=46150
hivel=127
key=C#3
lovel=0
offset=991
sample=Cellos_staccato_PP_C#3_RR1.opus
</region>

<region>
end=47000
fade_out=46150
hivel=127
key=C#4
lovel=0
offset=1169
sample=Cellos_staccato_PP_C#4_RR1.opus
</region>

<region>
end=47000
fade_out=46150
hivel=127
key=C#5
lovel=0
offset=949
sample=Cellos_staccato_PP_C#5_RR1.opus
</region>

<region>
end=47000
fade_out=46150
hivel=127
key=C2
lovel=0
sample=Cellos_staccato_PP_C2_RR1.opus
</region>

<region>
end=47000
fade_out=46150
hivel=127
key=C3
lovel=0
offset=814
sample=Cellos_staccato_PP_C3_RR1.opus
</region>

<region>
end=47000
fade_out=46150
hivel=127
key=C4
lovel=0
offset=2487
sample=Cellos_staccato_PP_C4_RR1.opus
</region>

<region>
end=47000
fade_out=46150
hivel=127
key=C5
lovel=0
offset=1048
sample=Cellos_staccato_PP_C5_RR1.opus
</region>

<region>
end=47000
fade_out=46150
hivel=127
key=D#2
lovel=0
sample=Cellos_staccato_PP_D#2_RR1.opus
</region>

<region>
end=47000
fade_out=46150
hivel=127
key=D#3
lovel=0
sample=Cellos_staccato_PP_D#3_RR1.opus
</region>

<region>
end=47000
fade_out=46150
hivel=127
key=D#4
lovel=0
offset=823
sample=Cellos_staccato_PP_D#4_RR1.opus
</region>

<region>
end=47000
fade_out=46150
hivel=127
key=D#5
lovel=0
sample=Cellos_staccato_PP_D#5_RR1.opus
</region>

<region>
end=47000
fade_out=46150
hivel=127
key=D2
lovel=0
offset=1587
sample=Cellos_staccato_PP_D2_RR1.opus
</region>

<region>
end=47000
fade_out=46150
hivel=127
key=D3
lovel=0
sample=Cellos_staccato_PP_D3_RR1.opus
</region>

<region>
end=47000
fade_out=46150
hivel=127
key=D4
lovel=0
offset=990
sample=Cellos_staccato_PP_D4_RR1.opus
</region>

<region>
end=47000
fade_out=46150
hivel=127
key=D5
lovel=0
offset=2169
sample=Cellos_staccato_PP_D5_RR1.opus
</region>

<region>
end=47000
fade_out=46150
hivel=127
key=E2
lovel=0
offset=1501
sample=Cellos_staccato_PP_E2_RR1.opus
</region>

<region>
end=47000
fade_out=46150
hivel=127
key=E3
lovel=0
offset=1614
sample=Cellos_staccato_PP_E3_RR1.opus
</region>

<region>
end=47000
fade_out=46150
hivel=127
key=E4
lovel=0
offset=1300
sample=Cellos_staccato_PP_E4_RR1.opus
</region>

<region>
end=47000
fade_out=46150
hivel=127
key=E5
lovel=0
sample=Cellos_staccato_PP_E5_RR1.opus
</region>

<region>
end=47000
fade_out=46150
hivel=127
key=F#2
lovel=0
offset=1825
sample=Cellos_staccato_PP_F#2_RR1.opus
</region>

<region>
end=47000
fade_out=46150
hivel=127
key=F#3
lovel=0
offset=604
sample=Cellos_staccato_PP_F#3_RR1.opus
</region>

<region>
end=47000
fade_out=46150
hivel=127
key=F#4
lovel=0
sample=Cellos_staccato_PP_F#4_RR1.opus
</region>

<region>
end=47000
fade_out=46150
hivel=127
key=F#5
lovel=0
sample=Cellos_staccato_PP_F#5_RR1.opus
</region>

<region>
end=47000
fade_out=46150
hivel=127
key=F2
lovel=0
offset=1194
sample=Cellos_staccato_PP_F2_RR1.opus
</region>

<region>
end=47000
fade_out=46150
hivel=127
key=F3
lovel=0
offset=795
sample=Cellos_staccato_PP_F3_RR1.opus
</region>

<region>
end=47000
fade_out=46150
hivel=127
key=F4
lovel=0
offset=533
sample=Cellos_staccato_PP_F4_RR1.opus
</region>

<region>
end=47000
fade_out=46150
hivel=127
key=F5
lovel=0
offset=639
sample=Cellos_staccato_PP_F5_RR1.opus
</region>

<region>
end=47000
fade_out=46150
hivel=127
key=G#2
lovel=0
sample=Cellos_staccato_PP_G#2_RR1.opus
</region>

<region>
end=47000
fade_out=46150
hivel=127
key=G#3
lovel=0
offset=1858
sample=Cellos_staccato_PP_G#3_RR1.opus
</region>

<region>
end=47000
fade_out=46150
hivel=127
key=G#4
lovel=0
offset=1153
sample=Cellos_staccato_PP_G#4_RR1.opus
</region>

<region>
end=47000
fade_out=46150
hivel=127
key=G2
lovel=0
offset=1309
sample=Cellos_staccato_PP_G2_RR1.opus
</region>

<region>
end=47000
fade_out=46150
hivel=127
key=G3
lovel=0
offset=665
sample=Cellos_staccato_PP_G3_RR1.opus
</region>

<region>
end=47000
fade_out=46150
hivel=127
key=G4
lovel=0
offset=1076
sample=Cellos_staccato_PP_G4_RR1.opus
</region>

<region>
end=47000
fade_out=46150
hikey=F6
hivel=127
lokey=G5
lovel=0
offset=736
pitch_keycenter=G5
sample=Cellos_staccato_PP_G5_RR1.opus
</region>
</group>

<group>
group_label=RR1_43-84
seq_length=4
seq_position=1
xf_cccurve=gain
xfin_hicc1=84
xfin_locc1=43
xfout_hicc1=125
xfout_locc1=84

<region>
end=47000
fade_out=46150
hivel=127
key=A#2
lovel=0
offset=690
sample=Cellos_staccato_MF_A#2_RR1.opus
</region>

<region>
end=47000
fade_out=46150
hivel=127
key=A#3
lovel=0
offset=1940
sample=Cellos_staccato_MF_A#3_RR1.opus
</region>

<region>
end=47000
fade_out=46150
hivel=127
key=A#4
lovel=0
offset=666
sample=Cellos_staccato_MF_A#4_RR1.opus
</region>

<region>
end=47000
fade_out=46150
hivel=127
key=A2
lovel=0
offset=480
sample=Cellos_staccato_MF_A2_RR1.opus
</region>

<region>
end=47000
fade_out=46150
hivel=127
key=A3
lovel=0
sample=Cellos_staccato_MF_A3_RR1.opus
</region>

<region>
end=47000
fade_out=46150
hivel=127
key=A4
lovel=0
offset=702
sample=Cellos_staccato_MF_A4_RR1.opus
</region>

<region>
end=47000
fade_out=46150
hivel=127
key=B2
lovel=0
sample=Cellos_staccato_MF_B2_RR1.opus
</region>

<region>
end=47000
fade_out=46150
hivel=127
key=B3
lovel=0
sample=Cellos_staccato_MF_B3_RR1.opus
</region>

<region>
end=47000
fade_out=46150
hivel=127
key=B4
lovel=0
offset=1486
sample=Cellos_staccato_MF_B4_RR1.opus
</region>

<region>
end=47000
fade_out=46150
hivel=127
key=C#2
lovel=0
offset=659
sample=Cellos_staccato_MF_C#2_RR1.opus
</region>

<region>
end=47000
fade_out=46150
hivel=127
key=C#3
lovel=0
offset=545
sample=Cellos_staccato_MF_C#3_RR1.opus
</region>

<region>
end=47000
fade_out=46150
hivel=127
key=C#4
lovel=0
offset=624
sample=Cellos_staccato_MF_C#4_RR1.opus
</region>

<region>
end=47000
fade_out=46150
hivel=127
key=C#5
lovel=0
offset=734
sample=Cellos_staccato_MF_C#5_RR1.opus
</region>

<region>
end=47000
fade_out=46150
hivel=127
key=C2
lovel=0
sample=Cellos_staccato_MF_C2_RR1.opus
</region>

<region>
end=47000
fade_out=46150
hivel=127
key=C3
lovel=0
offset=604
sample=Cellos_staccato_MF_C3_RR1.opus
</region>

<region>
end=47000
fade_out=46150
hivel=127
key=C4
lovel=0
offset=466
sample=Cellos_staccato_MF_C4_RR1.opus
</region>

<region>
end=46409
fade_out=45559
hivel=127
key=C5
lovel=0
offset=687
sample=Cellos_staccato_MF_C5_RR1.opus
</region>

<region>
end=47000
fade_out=46150
hivel=127
key=D#2
lovel=0
sample=Cellos_staccato_MF_D#2_RR1.opus
</region>

<region>
end=47000
fade_out=46150
hivel=127
key=D#3
lovel=0
offset=390
sample=Cellos_staccato_MF_D#3_RR1.opus
</region>

<region>
end=47000
fade_out=46150
hivel=127
key=D#4
lovel=0
sample=Cellos_staccato_MF_D#4_RR1.opus
</region>

<region>
end=47000
fade_out=46150
hivel=127
key=D#5
lovel=0
offset=731
sample=Cellos_staccato_MF_D#5_RR1.opus
</region>

<region>
end=47000
fade_out=46150
hivel=127
key=D2
lovel=0
offset=635
sample=Cellos_staccato_MF_D2_RR1.opus
</region>

<region>
end=47000
fade_out=46150
hivel=127
key=D3
lovel=0
sample=Cellos_staccato_MF_D3_RR1.opus
</region>

<region>
end=47000
fade_out=46150
hivel=127
key=D4
lovel=0
offset=596
sample=Cellos_staccato_MF_D4_RR1.opus
</region>

<region>
end=47000
fade_out=46150
hivel=127
key=D5
lovel=0
offset=722
sample=Cellos_staccato_MF_D5_RR1.opus
</region>

<region>
end=47000
fade_out=46150
hivel=127
key=E2
lovel=0
offset=629
sample=Cellos_staccato_MF_E2_RR1.opus
</region>

<region>
end=47000
fade_out=46150
hivel=127
key=E3
lovel=0
offset=462
sample=Cellos_staccato_MF_E3_RR1.opus
</region>

<region>
end=47000
fade_out=46150
hivel=127
key=E4
lovel=0
offset=624
sample=Cellos_staccato_MF_E4_RR1.opus
</region>

<region>
end=47000
fade_out=46150
hivel=127
key=E5
lovel=0
offset=460
sample=Cellos_staccato_MF_E5_RR1.opus
</region>

<region>
end=47000
fade_out=46150
hivel=127
key=F#2
lovel=0
offset=370
sample=Cellos_staccato_MF_F#2_RR1.opus
</region>

<region>
end=47000
fade_out=46150
hivel=127
key=F#3
lovel=0
offset=683
sample=Cellos_staccato_MF_F#3_RR1.opus
</region>

<region>
end=47000
fade_out=46150
hivel=127
key=F#4
lovel=0
offset=605
sample=Cellos_staccato_MF_F#4_RR1.opus
</region>

<region>
end=47000
fade_out=46150
hivel=127
key=F#5
lovel=0
sample=Cellos_staccato_MF_F#5_RR1.opus
</region>

<region>
end=47000
fade_out=46150
hivel=127
key=F2
lovel=0
offset=622
sample=Cellos_staccato_MF_F2_RR1.opus
</region>

<region>
end=47000
fade_out=46150
hivel=127
key=F3
lovel=0
offset=638
sample=Cellos_staccato_MF_F3_RR1.opus
</region>

<region>
end=47000
fade_out=46150
hivel=127
key=F4
lovel=0
sample=Cellos_staccato_MF_F4_RR1.opus
</region>

<region>
end=47000
fade_out=46150
hivel=127
key=F5
lovel=0
sample=Cellos_staccato_MF_F5_RR1.opus
</region>

<region>
end=47000
fade_out=46150
hivel=127
key=G#2
lovel=0
offset=478
sample=Cellos_staccato_MF_G#2_RR1.opus
</region>

<region>
end=47000
fade_out=46150
hivel=127
key=G#3
lovel=0
sample=Cellos_staccato_MF_G#3_RR1.opus
</region>

<region>
end=47000
fade_out=46150
hivel=127
key=G#4
lovel=0
offset=603
sample=Cellos_staccato_MF_G#4_RR1.opus
</region>

<region>
end=47000
fade_out=46150
hivel=127
key=G2
lovel=0
offset=489
sample=Cellos_staccato_MF_G2_RR1.opus
</region>

<region>
end=47000
fade_out=46150
hivel=127
key=G3
lovel=0
offset=673
sample=Cellos_staccato_MF_G3_RR1.opus
</region>

<region>
end=47000
fade_out=46150
hivel=127
key=G4
lovel=0
offset=610
sample=Cellos_staccato_MF_G4_RR1.opus
</region>

<region>
end=47000
fade_out=46150
hikey=F6
hivel=127
lokey=G5
lovel=0
pitch_keycenter=G5
sample=Cellos_staccato_MF_G5_RR1.opus
</region>
</group>

<group>
group_label=RR1_85-127
seq_length=4
seq_position=1
xf_cccurve=gain
xfin_hicc1=127
xfin_locc1=85
xfout_hicc1=127
xfout_locc1=127

<region>
end=48089
fade_out=47239
hivel=127
key=A#2
lovel=0
offset=676
sample=Cellos_staccato_FF_A#2_RR1.opus
</region>

<region>
end=48294
fade_out=47444
hivel=127
key=A#3
lovel=0
offset=780
sample=Cellos_staccato_FF_A#3_RR1.opus
</region>

<region>
end=49047
fade_out=48197
hivel=127
key=A#4
lovel=0
offset=790
sample=Cellos_staccato_FF_A#4_RR1.opus
</region>

<region>
end=47000
fade_out=46150
hivel=127
key=A2
lovel=0
offset=637
sample=Cellos_staccato_FF_A2_RR1.opus
</region>

<region>
end=47000
fade_out=46150
hivel=127
key=A3
lovel=0
offset=758
sample=Cellos_staccato_FF_A3_RR1.opus
</region>

<region>
end=47000
fade_out=46150
hivel=127
key=A4
lovel=0
offset=638
sample=Cellos_staccato_FF_A4_RR1.opus
</region>

<region>
end=47548
fade_out=46698
hivel=127
key=B2
lovel=0
offset=682
sample=Cellos_staccato_FF_B2_RR1.opus
</region>

<region>
end=48622
fade_out=47772
hikey=C4
hivel=127
lokey=B3
lovel=0
offset=522
pitch_keycenter=B3
sample=Cellos_staccato_FF_B3_RR1.opus
</region>

<region>
end=48379
fade_out=47529
hivel=127
key=B4
lovel=0
offset=777
sample=Cellos_staccato_FF_B4_RR1.opus
</region>

<region>
end=47916
fade_out=47066
hivel=127
key=C#2
lovel=0
offset=631
sample=Cellos_staccato_FF_C#2_RR1.opus
</region>

<region>
end=47525
fade_out=46675
hivel=127
key=C#3
lovel=0
offset=695
sample=Cellos_staccato_FF_C#3_RR1.opus
</region>

<region>
end=48360
fade_out=47510
hivel=127
key=C#5
lovel=0
offset=689
sample=Cellos_staccato_FF_C#5_RR1.opus
</region>

<region>
end=46097
fade_out=45247
hivel=127
key=C2
lovel=0
offset=592
sample=Cellos_staccato_FF_C2_RR1.opus
</region>

<region>
end=48406
fade_out=47556
hivel=127
key=C3
lovel=0
offset=690
sample=Cellos_staccato_FF_C3_RR1.opus
</region>

<region>
end=48746
fade_out=47896
hivel=127
key=C5
lovel=0
offset=637
sample=Cellos_staccato_FF_C5_RR1.opus
</region>

<region>
end=47000
fade_out=46150
hivel=127
key=D#2
lovel=0
offset=642
sample=Cellos_staccato_FF_D#2_RR1.opus
</region>

<region>
end=48448
fade_out=47598
hivel=127
key=D#3
lovel=0
offset=591
sample=Cellos_staccato_FF_D#3_RR1.opus
</region>

<region>
end=47948
fade_out=47098
hivel=127
key=D#4
lovel=0
offset=733
sample=Cellos_staccato_FF_D#4_RR1.opus
</region>

<region>
end=47729
fade_out=46879
hivel=127
key=D#5
lovel=0
sample=Cellos_staccato_FF_D#5_RR1.opus
</region>

<region>
end=46207
fade_out=45357
hivel=127
key=D2
lovel=0
offset=628
sample=Cellos_staccato_FF_D2_RR1.opus
</region>

<region>
end=47000
fade_out=46150
hivel=127
key=D3
lovel=0
offset=605
sample=Cellos_staccato_FF_D3_RR1.opus
</region>

<region>
end=48763
fade_out=47913
hikey=D4
hivel=127
lokey=C#4
lovel=0
offset=689
pitch_keycenter=D4
sample=Cellos_staccato_FF_D4_RR1.opus
</region>

<region>
end=49904
fade_out=49054
hivel=127
key=D5
lovel=0
sample=Cellos_staccato_FF_D5_RR1.opus
</region>

<region>
end=46757
fade_out=45907
hivel=127
key=E2
lovel=0
sample=Cellos_staccato_FF_E2_RR1.opus
</region>

<region>
end=47889
fade_out=47039
hivel=127
key=E3
lovel=0
sample=Cellos_staccato_FF_E3_RR1.opus
</region>

<region>
end=48794
fade_out=47944
hivel=127
key=E4
lovel=0
offset=773
sample=Cellos_staccato_FF_E4_RR1.opus
</region>

<region>
end=47526
fade_out=46676
hivel=127
key=E5
lovel=0
offset=616
sample=Cellos_staccato_FF_E5_RR1.opus
</region>

<region>
end=46349
fade_out=45499
hivel=127
key=F#2
lovel=0
offset=624
sample=Cellos_staccato_FF_F#2_RR1.opus
</region>

<region>
end=48246
fade_out=47396
hivel=127
key=F#3
lovel=0
offset=621
sample=Cellos_staccato_FF_F#3_RR1.opus
</region>

<region>
end=48934
fade_out=48084
hivel=127
key=F#4
lovel=0
offset=698
sample=Cellos_staccato_FF_F#4_RR1.opus
</region>

<region>
end=47000
fade_out=46150
hivel=127
key=F#5
lovel=0
offset=656
sample=Cellos_staccato_FF_F#5_RR1.opus
</region>

<region>
end=48348
fade_out=47498
hivel=127
key=F2
lovel=0
offset=631
sample=Cellos_staccato_FF_F2_RR1.opus
</region>

<region>
end=48025
fade_out=47175
hivel=127
key=F3
lovel=0
offset=591
sample=Cellos_staccato_FF_F3_RR1.opus
</region>

<region>
end=48172
fade_out=47322
hivel=127
key=F4
lovel=0
offset=759
sample=Cellos_staccato_FF_F4_RR1.opus
</region>

<region>
end=48600
fade_out=47750
hivel=127
key=F5
lovel=0
offset=636
sample=Cellos_staccato_FF_F5_RR1.opus
</region>

<region>
end=47000
fade_out=46150
hivel=127
key=G#2
lovel=0
offset=718
sample=Cellos_staccato_FF_G#2_RR1.opus
</region>

<region>
end=47521
fade_out=46671
hivel=127
key=G#3
lovel=0
sample=Cellos_staccato_FF_G#3_RR1.opus
</region>

<region>
end=47302
fade_out=46452
hivel=127
key=G#4
lovel=0
offset=423
sample=Cellos_staccato_FF_G#4_RR1.opus
</region>

<region>
end=48353
fade_out=47503
hivel=127
key=G2
lovel=0
offset=639
sample=Cellos_staccato_FF_G2_RR1.opus
</region>

<region>
end=48487
fade_out=47637
hivel=127
key=G3
lovel=0
offset=608
sample=Cellos_staccato_FF_G3_RR1.opus
</region>

<region>
end=48367
fade_out=47517
hivel=127
key=G4
lovel=0
sample=Cellos_staccato_FF_G4_RR1.opus
</region>

<region>
end=47000
fade_out=46150
hikey=F6
hivel=127
lokey=G5
lovel=0
offset=656
pitch_keycenter=G5
sample=Cellos_staccato_FF_G5_RR1.opus
</region>
</group>

<group>
group_label=RR2_0-42
seq_length=4
seq_position=2
xf_cccurve=gain
xfin_hicc1=42
xfout_hicc1=84
xfout_locc1=42

<region>
end=47738
fade_out=46888
hivel=127
key=A#2
lovel=0
offset=1948
sample=Cellos_staccato_PP_A#2_RR2.opus
</region>

<region>
end=47000
fade_out=46150
hivel=127
key=A#3
lovel=0
offset=1776
sample=Cellos_staccato_PP_A#3_RR2.opus
</region>

<region>
end=47000
fade_out=46150
hivel=127
key=A#4
lovel=0
sample=Cellos_staccato_PP_A#4_RR2.opus
</region>

<region>
end=48880
fade_out=48030
hivel=127
key=A2
lovel=0
offset=879
sample=Cellos_staccato_PP_A2_RR2.opus
</region>

<region>
end=47000
fade_out=46150
hivel=127
key=A3
lovel=0
offset=1581
sample=Cellos_staccato_PP_A3_RR2.opus
</region>

<region>
end=47000
fade_out=46150
hivel=127
key=A4
lovel=0
offset=1060
sample=Cellos_staccato_PP_A4_RR2.opus
</region>

<region>
end=47966
fade_out=47116
hivel=127
key=B2
lovel=0
offset=1341
sample=Cellos_staccato_PP_B2_RR2.opus
</region>

<region>
end=47000
fade_out=46150
hivel=127
key=B3
lovel=0
offset=914
sample=Cellos_staccato_PP_B3_RR2.opus
</region>

<region>
end=47000
fade_out=46150
hivel=127
key=B4
lovel=0
sample=Cellos_staccato_PP_B4_RR2.opus
</region>

<region>
end=48528
fade_out=47678
hivel=127
key=C#2
lovel=0
offset=874
sample=Cellos_staccato_PP_C#2_RR2.opus
</region>

<region>
end=48566
fade_out=47716
hivel=127
key=C#3
lovel=0
offset=1594
sample=Cellos_staccato_PP_C#3_RR2.opus
</region>

<region>
end=46347
fade_out=45497
hivel=127
key=C#4
lovel=0
offset=1304
sample=Cellos_staccato_PP_C#4_RR2.opus
</region>

<region>
end=47000
fade_out=46150
hivel=127
key=C#5
lovel=0
offset=1158
sample=Cellos_staccato_PP_C#5_RR2.opus
</region>

<region>
end=48448
fade_out=47598
hivel=127
key=C2
lovel=0
offset=2032
sample=Cellos_staccato_PP_C2_RR2.opus
</region>

<region>
end=48492
fade_out=47642
hivel=127
key=C3
lovel=0
sample=Cellos_staccato_PP_C3_RR2.opus
</region>

<region>
end=47000
fade_out=46150
hivel=127
key=C4
lovel=0
offset=1069
sample=Cellos_staccato_PP_C4_RR2.opus
</region>

<region>
end=47000
fade_out=46150
hivel=127
key=C5
lovel=0
offset=1158
sample=Cellos_staccato_PP_C5_RR2.opus
</region>

<region>
fade_out=46000
hivel=127
key=D#2
lovel=0
offset=3802
sample=Cellos_staccato_PP_D#2_RR2.opus
</region>

<region>
end=48899
fade_out=48049
hivel=127
key=D#3
lovel=0
offset=1603
sample=Cellos_staccato_PP_D#3_RR2.opus
</region>

<region>
end=48680
fade_out=47830
hivel=127
key=D#4
lovel=0
offset=1499
sample=Cellos_staccato_PP_D#4_RR2.opus
</region>

<region>
end=47000
fade_out=46150
hivel=127
key=D#5
lovel=0
sample=Cellos_staccato_PP_D#5_RR2.opus
</region>

<region>
end=48586
fade_out=47736
hivel=127
key=D2
lovel=0
offset=3433
sample=Cellos_staccato_PP_D2_RR2.opus
</region>

<region>
end=48453
fade_out=47603
hivel=127
key=D3
lovel=0
sample=Cellos_staccato_PP_D3_RR2.opus
</region>

<region>
end=47000
fade_out=46150
hivel=127
key=D4
lovel=0
offset=2276
sample=Cellos_staccato_PP_D4_RR2.opus
</region>

<region>
end=47000
fade_out=46150
hivel=127
key=D5
lovel=0
offset=1353
sample=Cellos_staccato_PP_D5_RR2.opus
</region>

<region>
end=47000
fade_out=46150
hivel=127
key=E2
lovel=0
offset=1211
sample=Cellos_staccato_PP_E2_RR2.opus
</region>

<region>
end=48703
fade_out=47853
hivel=127
key=E3
lovel=0
offset=3098
sample=Cellos_staccato_PP_E3_RR2.opus
</region>

<region>
end=48110
fade_out=47260
hivel=127
key=E4
lovel=0
offset=749
sample=Cellos_staccato_PP_E4_RR2.opus
</region>

<region>
end=47000
fade_out=46150
hivel=127
key=E5
lovel=0
sample=Cellos_staccato_PP_E5_RR2.opus
</region>

<region>
end=48275
fade_out=47425
hivel=127
key=F#2
lovel=0
offset=1139
sample=Cellos_staccato_PP_F#2_RR2.opus
</region>

<region>
end=48346
fade_out=47496
hivel=127
key=F#3
lovel=0
offset=1844
sample=Cellos_staccato_PP_F#3_RR2.opus
</region>

<region>
end=47000
fade_out=46150
hivel=127
key=F#4
lovel=0
offset=845
sample=Cellos_staccato_PP_F#4_RR2.opus
</region>

<region>
end=47000
fade_out=46150
hivel=127
key=F#5
lovel=0
offset=1334
sample=Cellos_staccato_PP_F#5_RR2.opus
</region>

<region>
end=47000
fade_out=46150
hivel=127
key=F2
lovel=0
offset=2275
sample=Cellos_staccato_PP_F2_RR2.opus
</region>

<region>
end=48860
fade_out=48010
hivel=127
key=F3
lovel=0
offset=1605
sample=Cellos_staccato_PP_F3_RR2.opus
</region>

<region>
end=47000
fade_out=46150
hivel=127
key=F4
lovel=0
offset=748
sample=Cellos_staccato_PP_F4_RR2.opus
</region>

<region>
end=47000
fade_out=46150
hivel=127
key=F5
lovel=0
sample=Cellos_staccato_PP_F5_RR2.opus
</region>

<region>
end=48663
fade_out=47813
hivel=127
key=G#2
lovel=0
offset=1038
sample=Cellos_staccato_PP_G#2_RR2.opus
</region>

<region>
end=47000
fade_out=46150
hivel=127
key=G#3
lovel=0
sample=Cellos_staccato_PP_G#3_RR2.opus
</region>

<region>
end=47000
fade_out=46150
hivel=127
key=G#4
lovel=0
sample=Cellos_staccato_PP_G#4_RR2.opus
</region>

<region>
end=48222
fade_out=47372
hivel=127
key=G2
lovel=0
offset=2833
sample=Cellos_staccato_PP_G2_RR2.opus
</region>

<region>
end=47000
fade_out=46150
hivel=127
key=G3
lovel=0
sample=Cellos_staccato_PP_G3_RR2.opus
</region>

<region>
end=47000
fade_out=46150
hivel=127
key=G4
lovel=0
sample=Cellos_staccato_PP_G4_RR2.opus
</region>

<region>
end=47000
fade_out=46150
hikey=F6
hivel=127
lokey=G5
lovel=0
offset=1117
pitch_keycenter=G5
sample=Cellos_staccato_PP_G5_RR2.opus
</region>
</group>

<group>
group_label=RR2_43-84
seq_length=4
seq_position=2
xf_cccurve=gain
xfin_hicc1=84
xfin_locc1=43
xfout_hicc1=125
xfout_locc1=84

<region>
end=49469
fade_out=48619
hivel=127
key=A#2
lovel=0
offset=1189
sample=Cellos_staccato_MF_A#2_RR2.opus
</region>

<region>
end=48047
fade_out=47197
hivel=127
key=A#3
lovel=0
offset=864
sample=Cellos_staccato_MF_A#3_RR2.opus
</region>

<region>
end=48930
fade_out=48080
hivel=127
key=A#4
lovel=0
offset=2051
sample=Cellos_staccato_MF_A#4_RR2.opus
</region>

<region>
end=47961
fade_out=47111
hivel=127
key=A2
lovel=0
offset=722
sample=Cellos_staccato_MF_A2_RR2.opus
</region>

<region>
end=48535
fade_out=47685
hivel=127
key=A3
lovel=0
offset=1412
sample=Cellos_staccato_MF_A3_RR2.opus
</region>

<region>
end=47000
fade_out=46150
hivel=127
key=A4
lovel=0
offset=978
sample=Cellos_staccato_MF_A4_RR2.opus
</region>

<region>
end=48962
fade_out=48112
hivel=127
key=B2
lovel=0
offset=736
sample=Cellos_staccato_MF_B2_RR2.opus
</region>

<region>
end=48384
fade_out=47534
hivel=127
key=B3
lovel=0
offset=1174
sample=Cellos_staccato_MF_B3_RR2.opus
</region>

<region>
end=47762
fade_out=46912
hivel=127
key=B4
lovel=0
offset=820
sample=Cellos_staccato_MF_B4_RR2.opus
</region>

<region>
fade_out=46000
hivel=127
key=C#2
lovel=0
offset=750
sample=Cellos_staccato_MF_C#2_RR2.opus
</region>

<region>
end=49098
fade_out=48248
hivel=127
key=C#3
lovel=0
offset=1249
sample=Cellos_staccato_MF_C#3_RR2.opus
</region>

<region>
end=48917
fade_out=48067
hivel=127
key=C#4
lovel=0
offset=1395
sample=Cellos_staccato_MF_C#4_RR2.opus
</region>

<region>
end=48331
fade_out=47481
hivel=127
key=C#5
lovel=0
offset=1733
sample=Cellos_staccato_MF_C#5_RR2.opus
</region>

<region>
end=49278
fade_out=48428
hivel=127
key=C2
lovel=0
offset=1129
sample=Cellos_staccato_MF_C2_RR2.opus
</region>

<region>
end=49313
fade_out=48463
hivel=127
key=C3
lovel=0
offset=1350
sample=Cellos_staccato_MF_C3_RR2.opus
</region>

<region>
end=47000
fade_out=46150
hivel=127
key=C4
lovel=0
sample=Cellos_staccato_MF_C4_RR2.opus
</region>

<region>
end=47666
fade_out=46816
hivel=127
key=C5
lovel=0
sample=Cellos_staccato_MF_C5_RR2.opus
</region>

<region>
end=48275
fade_out=47425
hivel=127
key=D#2
lovel=0
sample=Cellos_staccato_MF_D#2_RR2.opus
</region>

<region>
end=48397
fade_out=47547
hivel=127
key=D#3
lovel=0
offset=873
sample=Cellos_staccato_MF_D#3_RR2.opus
</region>

<region>
end=47000
fade_out=46150
hivel=127
key=D#4
lovel=0
offset=834
sample=Cellos_staccato_MF_D#4_RR2.opus
</region>

<region>
end=48075
fade_out=47225
hivel=127
key=D#5
lovel=0
offset=561
sample=Cellos_staccato_MF_D#5_RR2.opus
</region>

<region>
fade_out=46000
hivel=127
key=D2
lovel=0
sample=Cellos_staccato_MF_D2_RR2.opus
</region>

<region>
end=47892
fade_out=47042
hivel=127
key=D3
lovel=0
sample=Cellos_staccato_MF_D3_RR2.opus
</region>

<region>
end=48091
fade_out=47241
hivel=127
key=D4
lovel=0
offset=1413
sample=Cellos_staccato_MF_D4_RR2.opus
</region>

<region>
end=49526
fade_out=48676
hivel=127
key=D5
lovel=0
offset=1402
sample=Cellos_staccato_MF_D5_RR2.opus
</region>

<region>
end=48653
fade_out=47803
hivel=127
key=E2
lovel=0
offset=378
sample=Cellos_staccato_MF_E2_RR2.opus
</region>

<region>
end=48358
fade_out=47508
hivel=127
key=E3
lovel=0
offset=795
sample=Cellos_staccato_MF_E3_RR2.opus
</region>

<region>
end=47000
fade_out=46150
hivel=127
key=E4
lovel=0
offset=834
sample=Cellos_staccato_MF_E4_RR2.opus
</region>

<region>
end=48654
fade_out=47804
hivel=127
key=E5
lovel=0
offset=1243
sample=Cellos_staccato_MF_E5_RR2.opus
</region>

<region>
end=49706
fade_out=48856
hivel=127
key=F#2
lovel=0
offset=1720
sample=Cellos_staccato_MF_F#2_RR2.opus
</region>

<region>
end=48848
fade_out=47998
hivel=127
key=F#3
lovel=0
sample=Cellos_staccato_MF_F#3_RR2.opus
</region>

<region>
end=47387
fade_out=46537
hivel=127
key=F#4
lovel=0
offset=1287
sample=Cellos_staccato_MF_F#4_RR2.opus
</region>

<region>
end=46061
fade_out=45211
hivel=127
key=F#5
lovel=0
sample=Cellos_staccato_MF_F#5_RR2.opus
</region>

<region>
end=49080
fade_out=48230
hivel=127
key=F2
lovel=0
offset=550
sample=Cellos_staccato_MF_F2_RR2.opus
</region>

<region>
end=47000
fade_out=46150
hivel=127
key=F3
lovel=0
offset=775
sample=Cellos_staccato_MF_F3_RR2.opus
</region>

<region>
end=49533
fade_out=48683
hivel=127
key=F4
lovel=0
offset=1866
sample=Cellos_staccato_MF_F4_RR2.opus
</region>

<region>
end=47484
fade_out=46634
hivel=127
key=F5
lovel=0
sample=Cellos_staccato_MF_F5_RR2.opus
</region>

<region>
end=48905
fade_out=48055
hivel=127
key=G#2
lovel=0
offset=1867
sample=Cellos_staccato_MF_G#2_RR2.opus
</region>

<region>
end=49393
fade_out=48543
hivel=127
key=G#3
lovel=0
offset=1754
sample=Cellos_staccato_MF_G#3_RR2.opus
</region>

<region>
end=47000
fade_out=46150
hivel=127
key=G#4
lovel=0
offset=1236
sample=Cellos_staccato_MF_G#4_RR2.opus
</region>

<region>
end=48613
fade_out=47763
hivel=127
key=G2
lovel=0
offset=708
sample=Cellos_staccato_MF_G2_RR2.opus
</region>

<region>
end=48629
fade_out=47779
hivel=127
key=G3
lovel=0
offset=893
sample=Cellos_staccato_MF_G3_RR2.opus
</region>

<region>
end=47000
fade_out=46150
hivel=127
key=G4
lovel=0
offset=2301
sample=Cellos_staccato_MF_G4_RR2.opus
</region>

<region>
end=47779
fade_out=46929
hikey=F6
hivel=127
lokey=G5
lovel=0
pitch_keycenter=G5
sample=Cellos_staccato_MF_G5_RR2.opus
</region>
</group>

<group>
group_label=RR2_85-127
seq_length=4
seq_position=2
xf_cccurve=gain
xfin_hicc1=127
xfin_locc1=85
xfout_hicc1=127
xfout_locc1=127

<region>
end=48668
fade_out=47818
hivel=127
key=A#2
lovel=0
sample=Cellos_staccato_FF_A#2_RR2.opus
</region>

<region>
end=48382
fade_out=47532
hivel=127
key=A#3
lovel=0
sample=Cellos_staccato_FF_A#3_RR2.opus
</region>

<region>
end=48577
fade_out=47727
hivel=127
key=A#4
lovel=0
offset=617
sample=Cellos_staccato_FF_A#4_RR2.opus
</region>

<region>
end=48489
fade_out=47639
hivel=127
key=A2
lovel=0
sample=Cellos_staccato_FF_A2_RR2.opus
</region>

<region>
end=48046
fade_out=47196
hivel=127
key=A3
lovel=0
offset=909
sample=Cellos_staccato_FF_A3_RR2.opus
</region>

<region>
end=49185
fade_out=48335
hivel=127
key=A4
lovel=0
sample=Cellos_staccato_FF_A4_RR2.opus
</region>

<region>
end=48402
fade_out=47552
hivel=127
key=B2
lovel=0
offset=1433
sample=Cellos_staccato_FF_B2_RR2.opus
</region>

<region>
end=48951
fade_out=48101
hivel=127
key=B3
lovel=0
offset=1174
sample=Cellos_staccato_FF_B3_RR2.opus
</region>

<region>
end=49431
fade_out=48581
hivel=127
key=B4
lovel=0
offset=3009
sample=Cellos_staccato_FF_B4_RR2.opus
</region>

<region>
end=47000
fade_out=46150
hivel=127
key=C#2
lovel=0
sample=Cellos_staccato_FF_C#2_RR2.opus
</region>

<region>
end=49064
fade_in=668
fade_out=48214
hivel=127
key=C#3
lovel=0
sample=Cellos_staccato_FF_C#3_RR2.opus
</region>

<region>
end=49580
fade_out=48730
hivel=127
key=C#4
lovel=0
offset=1805
sample=Cellos_staccato_FF_C#4_RR2.opus
</region>

<region>
end=48379
fade_out=47529
hivel=127
key=C#5
lovel=0
offset=795
sample=Cellos_staccato_FF_C#5_RR2.opus
</region>

<region>
end=45771
fade_out=44921
hivel=127
key=C2
lovel=0
sample=Cellos_staccato_FF_C2_RR2.opus
</region>

<region>
end=49272
fade_out=48422
hivel=127
key=C3
lovel=0
offset=1759
sample=Cellos_staccato_FF_C3_RR2.opus
</region>

<region>
fade_out=46000
hivel=127
key=C4
lovel=0
offset=2332
sample=Cellos_staccato_FF_C4_RR2.opus
</region>

<region>
end=47000
fade_out=46150
hivel=127
key=C5
lovel=0
offset=1549
sample=Cellos_staccato_FF_C5_RR2.opus
</region>

<region>
end=50050
fade_out=49200
hivel=127
key=D#2
lovel=0
offset=3468
sample=Cellos_staccato_FF_D#2_RR2.opus
</region>

<region>
end=48477
fade_out=47627
hivel=127
key=D#3
lovel=0
offset=1067
sample=Cellos_staccato_FF_D#3_RR2.opus
</region>

<region>
end=47930
fade_out=47080
hivel=127
key=D#4
lovel=0
sample=Cellos_staccato_FF_D#4_RR2.opus
</region>

<region>
end=47987
fade_out=47137
hivel=127
key=D#5
lovel=0
offset=1140
sample=Cellos_staccato_FF_D#5_RR2.opus
</region>

<region>
end=47000
fade_out=46150
hivel=127
key=D2
lovel=0
sample=Cellos_staccato_FF_D2_RR2.opus
</region>

<region>
end=47000
fade_in=586
fade_out=46150
hivel=127
key=D3
lovel=0
sample=Cellos_staccato_FF_D3_RR2.opus
</region>

<region>
end=49085
fade_out=48235
hivel=127
key=D4
lovel=0
offset=1998
sample=Cellos_staccato_FF_D4_RR2.opus
</region>

<region>
end=47000
fade_out=46150
hivel=127
key=D5
lovel=0
offset=830
sample=Cellos_staccato_FF_D5_RR2.opus
</region>

<region>
end=47793
fade_in=138
fade_out=46943
hivel=127
key=E2
lovel=0
sample=Cellos_staccato_FF_E2_RR2.opus
</region>

<region>
end=48242
fade_out=47392
hivel=127
key=E3
lovel=0
offset=1194
sample=Cellos_staccato_FF_E3_RR2.opus
</region>

<region>
end=47000
fade_out=46150
hivel=127
key=E4
lovel=0
offset=589
sample=Cellos_staccato_FF_E4_RR2.opus
</region>

<region>
end=47714
fade_out=46864
hivel=127
key=E5
lovel=0
offset=747
sample=Cellos_staccato_FF_E5_RR2.opus
</region>

<region>
end=48345
fade_out=47495
hivel=127
key=F#2
lovel=0
sample=Cellos_staccato_FF_F#2_RR2.opus
</region>

<region>
end=47000
fade_out=46150
hivel=127
key=F#3
lovel=0
offset=878
sample=Cellos_staccato_FF_F#3_RR2.opus
</region>

<region>
end=47000
fade_out=46150
hivel=127
key=F#4
lovel=0
offset=493
sample=Cellos_staccato_FF_F#4_RR2.opus
</region>

<region>
end=48692
fade_out=47842
hivel=127
key=F#5
lovel=0
sample=Cellos_staccato_FF_F#5_RR2.opus
</region>

<region>
end=47384
fade_out=46534
hivel=127
key=F2
lovel=0
offset=818
sample=Cellos_staccato_FF_F2_RR2.opus
</region>

<region>
end=48598
fade_out=47748
hivel=127
key=F3
lovel=0
offset=1403
sample=Cellos_staccato_FF_F3_RR2.opus
</region>

<region>
end=47000
fade_out=46150
hivel=127
key=F4
lovel=0
offset=466
sample=Cellos_staccato_FF_F4_RR2.opus
</region>

<region>
end=49120
fade_out=48270
hivel=127
key=F5
lovel=0
offset=1307
sample=Cellos_staccato_FF_F5_RR2.opus
</region>

<region>
end=48449
fade_out=47599
hivel=127
key=G#2
lovel=0
offset=2540
sample=Cellos_staccato_FF_G#2_RR2.opus
</region>

<region>
end=48599
fade_out=47749
hivel=127
key=G#3
lovel=0
sample=Cellos_staccato_FF_G#3_RR2.opus
</region>

<region>
end=48940
fade_out=48090
hivel=127
key=G#4
lovel=0
sample=Cellos_staccato_FF_G#4_RR2.opus
</region>

<region>
end=49338
fade_out=48488
hivel=127
key=G2
lovel=0
offset=1132
sample=Cellos_staccato_FF_G2_RR2.opus
</region>

<region>
end=49324
fade_out=48474
hivel=127
key=G3
lovel=0
offset=1713
sample=Cellos_staccato_FF_G3_RR2.opus
</region>

<region>
end=47000
fade_out=46150
hivel=127
key=G4
lovel=0
offset=569
sample=Cellos_staccato_FF_G4_RR2.opus
</region>

<region>
end=48034
fade_out=47184
hikey=F6
hivel=127
lokey=G5
lovel=0
pitch_keycenter=G5
sample=Cellos_staccato_FF_G5_RR2.opus
</region>
</group>

<group>
group_label=RR3_0-42
seq_length=4
seq_position=3
xf_cccurve=gain
xfin_hicc1=42
xfout_hicc1=84
xfout_locc1=42

<region>
end=47000
fade_out=46150
hivel=127
key=A#2
lovel=0
sample=Cellos_staccato_PP_A#2_RR3.opus
</region>

<region>
end=47000
fade_out=46150
hivel=127
key=A#3
lovel=0
sample=Cellos_staccato_PP_A#3_RR3.opus
</region>

<region>
end=47000
fade_out=46150
hivel=127
key=A#4
lovel=0
sample=Cellos_staccato_PP_A#4_RR3.opus
</region>

<region>
end=47000
fade_out=46150
hivel=127
key=A2
lovel=0
offset=1430
sample=Cellos_staccato_PP_A2_RR3.opus
</region>

<region>
end=47000
fade_out=46150
hivel=127
key=A3
lovel=0
offset=1227
sample=Cellos_staccato_PP_A3_RR3.opus
</region>

<region>
end=47000
fade_out=46150
hivel=127
key=A4
lovel=0
offset=1180
sample=Cellos_staccato_PP_A4_RR3.opus
</region>

<region>
end=47000
fade_out=46150
hivel=127
key=B2
lovel=0
offset=1626
sample=Cellos_staccato_PP_B2_RR3.opus
</region>

<region>
end=47000
fade_out=46150
hivel=127
key=B3
lovel=0
offset=1248
sample=Cellos_staccato_PP_B3_RR3.opus
</region>

<region>
end=47000
fade_out=46150
hivel=127
key=B4
lovel=0
sample=Cellos_staccato_PP_B4_RR3.opus
</region>

<region>
end=49617
fade_out=48767
hivel=127
key=C#2
lovel=0
offset=1258
sample=Cellos_staccato_PP_C#2_RR3.opus
</region>

<region>
end=47000
fade_out=46150
hivel=127
key=C#3
lovel=0
offset=1352
sample=Cellos_staccato_PP_C#3_RR3.opus
</region>

<region>
end=47000
fade_out=46150
hivel=127
key=C#4
lovel=0
sample=Cellos_staccato_PP_C#4_RR3.opus
</region>

<region>
end=47000
fade_out=46150
hivel=127
key=C#5
lovel=0
sample=Cellos_staccato_PP_C#5_RR3.opus
</region>

<region>
end=50153
fade_out=49303
hivel=127
key=C2
lovel=0
sample=Cellos_staccato_PP_C2_RR3.opus
</region>

<region>
end=47000
fade_out=46150
hivel=127
key=C3
lovel=0
offset=902
sample=Cellos_staccato_PP_C3_RR3.opus
</region>

<region>
end=47000
fade_out=46150
hivel=127
key=C4
lovel=0
sample=Cellos_staccato_PP_C4_RR3.opus
</region>

<region>
end=47000
fade_out=46150
hivel=127
key=C5
lovel=0
sample=Cellos_staccato_PP_C5_RR3.opus
</region>

<region>
end=47000
fade_out=46150
hivel=127
key=D#2
lovel=0
offset=2673
sample=Cellos_staccato_PP_D#2_RR3.opus
</region>

<region>
end=47000
fade_out=46150
hivel=127
key=D#3
lovel=0
offset=2490
sample=Cellos_staccato_PP_D#3_RR3.opus
</region>

<region>
end=47000
fade_out=46150
hivel=127
key=D#4
lovel=0
offset=1100
sample=Cellos_staccato_PP_D#4_RR3.opus
</region>

<region>
end=47000
fade_out=46150
hivel=127
key=D#5
lovel=0
offset=1200
sample=Cellos_staccato_PP_D#5_RR3.opus
</region>

<region>
end=48111
fade_out=47261
hivel=127
key=D2
lovel=0
offset=1625
sample=Cellos_staccato_PP_D2_RR3.opus
</region>

<region>
end=47000
fade_out=46150
hivel=127
key=D3
lovel=0
offset=977
sample=Cellos_staccato_PP_D3_RR3.opus
</region>

<region>
end=47000
fade_out=46150
hivel=127
key=D4
lovel=0
sample=Cellos_staccato_PP_D4_RR3.opus
</region>

<region>
end=47000
fade_out=46150
hivel=127
key=D5
lovel=0
sample=Cellos_staccato_PP_D5_RR3.opus
</region>

<region>
end=47000
fade_out=46150
hivel=127
key=E2
lovel=0
offset=3067
sample=Cellos_staccato_PP_E2_RR3.opus
</region>

<region>
end=47000
fade_out=46150
hivel=127
key=E3
lovel=0
offset=2080
sample=Cellos_staccato_PP_E3_RR3.opus
</region>

<region>
end=47000
fade_out=46150
hivel=127
key=E4
lovel=0
sample=Cellos_staccato_PP_E4_RR3.opus
</region>

<region>
end=47000
fade_out=46150
hivel=127
key=E5
lovel=0
sample=Cellos_staccato_PP_E5_RR3.opus
</region>

<region>
end=47000
fade_out=46150
hivel=127
key=F#2
lovel=0
sample=Cellos_staccato_PP_F#2_RR3.opus
</region>

<region>
end=47000
fade_out=46150
hivel=127
key=F#3
lovel=0
offset=748
sample=Cellos_staccato_PP_F#3_RR3.opus
</region>

<region>
end=47000
fade_out=46150
hivel=127
key=F#4
lovel=0
sample=Cellos_staccato_PP_F#4_RR3.opus
</region>

<region>
end=47000
fade_out=46150
hivel=127
key=F#5
lovel=0
sample=Cellos_staccato_PP_F#5_RR3.opus
</region>

<region>
end=47000
fade_out=46150
hivel=127
key=F2
lovel=0
offset=3129
sample=Cellos_staccato_PP_F2_RR3.opus
</region>

<region>
end=47000
fade_out=46150
hivel=127
key=F3
lovel=0
offset=921
sample=Cellos_staccato_PP_F3_RR3.opus
</region>

<region>
end=47000
fade_out=46150
hivel=127
key=F4
lovel=0
sample=Cellos_staccato_PP_F4_RR3.opus
</region>

<region>
end=47000
fade_out=46150
hivel=127
key=F5
lovel=0
offset=1200
sample=Cellos_staccato_PP_F5_RR3.opus
</region>

<region>
end=47000
fade_out=46150
hivel=127
key=G#2
lovel=0
offset=1726
sample=Cellos_staccato_PP_G#2_RR3.opus
</region>

<region>
end=47000
fade_out=46150
hivel=127
key=G#3
lovel=0
sample=Cellos_staccato_PP_G#3_RR3.opus
</region>

<region>
end=47000
fade_out=46150
hivel=127
key=G#4
lovel=0
sample=Cellos_staccato_PP_G#4_RR3.opus
</region>

<region>
end=47000
fade_out=46150
hivel=127
key=G2
lovel=0
offset=1678
sample=Cellos_staccato_PP_G2_RR3.opus
</region>

<region>
end=47000
fade_out=46150
hivel=127
key=G3
lovel=0
sample=Cellos_staccato_PP_G3_RR3.opus
</region>

<region>
end=47000
fade_out=46150
hivel=127
key=G4
lovel=0
sample=Cellos_staccato_PP_G4_RR3.opus
</region>

<region>
end=47000
fade_out=46150
hikey=F6
hivel=127
lokey=G5
lovel=0
offset=963
pitch_keycenter=G5
sample=Cellos_staccato_PP_G5_RR3.opus
</region>
</group>

<group>
group_label=RR3_43-84
seq_length=4
seq_position=3
xf_cccurve=gain
xfin_hicc1=84
xfin_locc1=43
xfout_hicc1=125
xfout_locc1=84

<region>
end=47000
fade_out=46150
hivel=127
key=A#2
lovel=0
offset=531
sample=Cellos_staccato_MF_A#2_RR3.opus
</region>

<region>
end=47000
fade_out=46150
hivel=127
key=A#3
lovel=0
offset=684
sample=Cellos_staccato_MF_A#3_RR3.opus
</region>

<region>
end=47000
fade_out=46150
hivel=127
key=A#4
lovel=0
offset=1444
sample=Cellos_staccato_MF_A#4_RR3.opus
</region>

<region>
end=47000
fade_out=46150
hivel=127
key=A2
lovel=0
offset=2250
sample=Cellos_staccato_MF_A2_RR3.opus
</region>

<region>
end=47000
fade_out=46150
hivel=127
key=A3
lovel=0
offset=1194
sample=Cellos_staccato_MF_A3_RR3.opus
</region>

<region>
end=47000
fade_out=46150
hivel=127
key=A4
lovel=0
offset=1548
sample=Cellos_staccato_MF_A4_RR3.opus
</region>

<region>
end=47000
fade_out=46150
hivel=127
key=B2
lovel=0
offset=1019
sample=Cellos_staccato_MF_B2_RR3.opus
</region>

<region>
end=47000
fade_out=46150
hivel=127
key=B3
lovel=0
offset=740
sample=Cellos_staccato_MF_B3_RR3.opus
</region>

<region>
end=47000
fade_out=46150
hivel=127
key=B4
lovel=0
offset=1270
sample=Cellos_staccato_MF_B4_RR3.opus
</region>

<region>
end=47000
fade_out=46150
hivel=127
key=C#2
lovel=0
offset=1815
sample=Cellos_staccato_MF_C#2_RR3.opus
</region>

<region>
end=47000
fade_out=46150
hivel=127
key=C#3
lovel=0
offset=1726
sample=Cellos_staccato_MF_C#3_RR3.opus
</region>

<region>
end=47000
fade_out=46150
hivel=127
key=C#4
lovel=0
offset=1131
sample=Cellos_staccato_MF_C#4_RR3.opus
</region>

<region>
end=47000
fade_out=46150
hivel=127
key=C#5
lovel=0
offset=875
sample=Cellos_staccato_MF_C#5_RR3.opus
</region>

<region>
end=47000
fade_out=46150
hivel=127
key=C2
lovel=0
offset=1741
sample=Cellos_staccato_MF_C2_RR3.opus
</region>

<region>
end=47000
fade_out=46150
hivel=127
key=C3
lovel=0
offset=1496
sample=Cellos_staccato_MF_C3_RR3.opus
</region>

<region>
end=47000
fade_out=46150
hivel=127
key=C4
lovel=0
sample=Cellos_staccato_MF_C4_RR3.opus
</region>

<region>
end=47000
fade_out=46150
hivel=127
key=C5
lovel=0
offset=375
sample=Cellos_staccato_MF_C5_RR3.opus
</region>

<region>
end=47000
fade_out=46150
hivel=127
key=D#2
lovel=0
offset=458
sample=Cellos_staccato_MF_D#2_RR3.opus
</region>

<region>
end=47000
fade_out=46150
hivel=127
key=D#3
lovel=0
offset=721
sample=Cellos_staccato_MF_D#3_RR3.opus
</region>

<region>
end=47000
fade_out=46150
hivel=127
key=D#4
lovel=0
offset=890
sample=Cellos_staccato_MF_D#4_RR3.opus
</region>

<region>
end=47000
fade_out=46150
hivel=127
key=D#5
lovel=0
offset=2054
sample=Cellos_staccato_MF_D#5_RR3.opus
</region>

<region>
end=47000
fade_out=46150
hivel=127
key=D2
lovel=0
offset=2052
sample=Cellos_staccato_MF_D2_RR3.opus
</region>

<region>
end=47000
fade_out=46150
hivel=127
key=D3
lovel=0
sample=Cellos_staccato_MF_D3_RR3.opus
</region>

<region>
end=47000
fade_out=46150
hivel=127
key=D4
lovel=0
offset=894
sample=Cellos_staccato_MF_D4_RR3.opus
</region>

<region>
end=47000
fade_out=46150
hivel=127
key=D5
lovel=0
offset=2376
sample=Cellos_staccato_MF_D5_RR3.opus
</region>

<region>
end=47000
fade_out=46150
hivel=127
key=E2
lovel=0
offset=935
sample=Cellos_staccato_MF_E2_RR3.opus
</region>

<region>
end=47000
fade_out=46150
hivel=127
key=E3
lovel=0
offset=715
sample=Cellos_staccato_MF_E3_RR3.opus
</region>

<region>
end=47000
fade_out=46150
hivel=127
key=E4
lovel=0
offset=752
sample=Cellos_staccato_MF_E4_RR3.opus
</region>

<region>
end=47000
fade_out=46150
hivel=127
key=E5
lovel=0
offset=1902
sample=Cellos_staccato_MF_E5_RR3.opus
</region>

<region>
end=47000
fade_out=46150
hivel=127
key=F#2
lovel=0
offset=2466
sample=Cellos_staccato_MF_F#2_RR3.opus
</region>

<region>
end=47000
fade_out=46150
hivel=127
key=F#3
lovel=0
sample=Cellos_staccato_MF_F#3_RR3.opus
</region>

<region>
end=47000
fade_out=46150
hivel=127
key=F#4
lovel=0
offset=882
sample=Cellos_staccato_MF_F#4_RR3.opus
</region>

<region>
end=46467
fade_in=381
fade_out=45617
hivel=127
key=F#5
lovel=0
sample=Cellos_staccato_MF_F#5_RR3.opus
</region>

<region>
end=47000
fade_out=46150
hivel=127
key=F2
lovel=0
offset=662
sample=Cellos_staccato_MF_F2_RR3.opus
</region>

<region>
end=47000
fade_out=46150
hivel=127
key=F3
lovel=0
offset=750
sample=Cellos_staccato_MF_F3_RR3.opus
</region>

<region>
end=47000
fade_out=46150
hivel=127
key=F4
lovel=0
offset=1347
sample=Cellos_staccato_MF_F4_RR3.opus
</region>

<region>
end=47000
fade_out=46150
hivel=127
key=F5
lovel=0
sample=Cellos_staccato_MF_F5_RR3.opus
</region>

<region>
end=47000
fade_out=46150
hivel=127
key=G#2
lovel=0
offset=2433
sample=Cellos_staccato_MF_G#2_RR3.opus
</region>

<region>
end=47000
fade_out=46150
hivel=127
key=G#3
lovel=0
offset=1490
sample=Cellos_staccato_MF_G#3_RR3.opus
</region>

<region>
end=47000
fade_out=46150
hivel=127
key=G#4
lovel=0
offset=2509
sample=Cellos_staccato_MF_G#4_RR3.opus
</region>

<region>
end=47000
fade_out=46150
hivel=127
key=G2
lovel=0
offset=677
sample=Cellos_staccato_MF_G2_RR3.opus
</region>

<region>
end=47000
fade_out=46150
hivel=127
key=G3
lovel=0
offset=900
sample=Cellos_staccato_MF_G3_RR3.opus
</region>

<region>
end=47000
fade_out=46150
hivel=127
key=G4
lovel=0
offset=1786
sample=Cellos_staccato_MF_G4_RR3.opus
</region>

<region>
end=47000
fade_out=46150
hikey=F6
hivel=127
lokey=G5
lovel=0
offset=465
pitch_keycenter=G5
sample=Cellos_staccato_MF_G5_RR3.opus
</region>
</group>

<group>
group_label=RR3_85-127
seq_length=4
seq_position=3
xf_cccurve=gain
xfin_hicc1=127
xfin_locc1=85
xfout_hicc1=127
xfout_locc1=127

<region>
end=50102
fade_out=49252
hivel=127
key=A#2
lovel=0
offset=1008
sample=Cellos_staccato_FF_A#2_RR3.opus
</region>

<region>
end=49864
fade_out=49014
hivel=127
key=A#3
lovel=0
offset=678
sample=Cellos_staccato_FF_A#3_RR3.opus
</region>

<region>
end=47000
fade_out=46150
hivel=127
key=A#4
lovel=0
offset=2805
sample=Cellos_staccato_FF_A#4_RR3.opus
</region>

<region>
end=49250
fade_out=48400
hivel=127
key=A2
lovel=0
offset=989
sample=Cellos_staccato_FF_A2_RR3.opus
</region>

<region>
end=48635
fade_out=47785
hivel=127
key=A3
lovel=0
sample=Cellos_staccato_FF_A3_RR3.opus
</region>

<region>
end=46623
fade_out=45773
hivel=127
key=A4
lovel=0
offset=569
sample=Cellos_staccato_FF_A4_RR3.opus
</region>

<region>
end=49429
fade_out=48579
hivel=127
key=B2
lovel=0
offset=750
sample=Cellos_staccato_FF_B2_RR3.opus
</region>

<region>
end=47938
fade_out=47088
hivel=127
key=B3
lovel=0
offset=682
sample=Cellos_staccato_FF_B3_RR3.opus
</region>

<region>
end=48874
fade_out=48024
hivel=127
key=B4
lovel=0
offset=3568
sample=Cellos_staccato_FF_B4_RR3.opus
</region>

<region>
end=47000
fade_out=46150
hivel=127
key=C#2
lovel=0
sample=Cellos_staccato_FF_C#2_RR3.opus
</region>

<region>
end=48400
fade_out=47550
hivel=127
key=C#3
lovel=0
offset=837
sample=Cellos_staccato_FF_C#3_RR3.opus
</region>

<region>
end=49831
fade_out=48981
hivel=127
key=C#4
lovel=0
offset=1884
sample=Cellos_staccato_FF_C#4_RR3.opus
</region>

<region>
end=47000
fade_out=46150
hivel=127
key=C#5
lovel=0
offset=2957
sample=Cellos_staccato_FF_C#5_RR3.opus
</region>

<region>
end=45531
fade_out=44681
hivel=127
key=C2
lovel=0
sample=Cellos_staccato_FF_C2_RR3.opus
</region>

<region>
end=48416
fade_out=47566
hivel=127
key=C3
lovel=0
offset=793
sample=Cellos_staccato_FF_C3_RR3.opus
</region>

<region>
end=48603
fade_out=47753
hivel=127
key=C4
lovel=0
offset=2987
sample=Cellos_staccato_FF_C4_RR3.opus
</region>

<region>
end=47000
fade_out=46150
hivel=127
key=C5
lovel=0
offset=849
sample=Cellos_staccato_FF_C5_RR3.opus
</region>

<region>
end=50135
fade_out=49285
hivel=127
key=D#2
lovel=0
offset=2817
sample=Cellos_staccato_FF_D#2_RR3.opus
</region>

<region>
end=47975
fade_out=47125
hivel=127
key=D#3
lovel=0
offset=692
sample=Cellos_staccato_FF_D#3_RR3.opus
</region>

<region>
end=47277
fade_out=46427
hivel=127
key=D#4
lovel=0
offset=492
sample=Cellos_staccato_FF_D#4_RR3.opus
</region>

<region>
end=47000
fade_out=46150
hivel=127
key=D#5
lovel=0
offset=804
sample=Cellos_staccato_FF_D#5_RR3.opus
</region>

<region>
end=46582
fade_out=45732
hivel=127
key=D2
lovel=0
sample=Cellos_staccato_FF_D2_RR3.opus
</region>

<region>
end=49463
fade_out=48613
hivel=127
key=D3
lovel=0
sample=Cellos_staccato_FF_D3_RR3.opus
</region>

<region>
end=47000
fade_out=46150
hivel=127
key=D4
lovel=0
offset=1091
sample=Cellos_staccato_FF_D4_RR3.opus
</region>

<region>
end=47000
fade_out=46150
hivel=127
key=D5
lovel=0
offset=788
sample=Cellos_staccato_FF_D5_RR3.opus
</region>

<region>
end=49227
fade_out=48377
hivel=127
key=E2
lovel=0
sample=Cellos_staccato_FF_E2_RR3.opus
</region>

<region>
end=49773
fade_out=48923
hivel=127
key=E3
lovel=0
offset=789
sample=Cellos_staccato_FF_E3_RR3.opus
</region>

<region>
end=48311
fade_out=47461
hivel=127
key=E4
lovel=0
offset=492
sample=Cellos_staccato_FF_E4_RR3.opus
</region>

<region>
end=47000
fade_out=46150
hivel=127
key=E5
lovel=0
offset=914
sample=Cellos_staccato_FF_E5_RR3.opus
</region>

<region>
end=47974
fade_out=47124
hivel=127
key=F#2
lovel=0
sample=Cellos_staccato_FF_F#2_RR3.opus
</region>

<region>
end=47000
fade_out=46150
hivel=127
key=F#3
lovel=0
sample=Cellos_staccato_FF_F#3_RR3.opus
</region>

<region>
end=47000
fade_out=46150
hivel=127
key=F#4
lovel=0
sample=Cellos_staccato_FF_F#4_RR3.opus
</region>

<region>
end=47000
fade_out=46150
hivel=127
key=F#5
lovel=0
offset=796
sample=Cellos_staccato_FF_F#5_RR3.opus
</region>

<region>
end=47409
fade_out=46559
hivel=127
key=F2
lovel=0
sample=Cellos_staccato_FF_F2_RR3.opus
</region>

<region>
end=49363
fade_out=48513
hivel=127
key=F3
lovel=0
offset=1180
sample=Cellos_staccato_FF_F3_RR3.opus
</region>

<region>
end=47000
fade_out=46150
hivel=127
key=F4
lovel=0
sample=Cellos_staccato_FF_F4_RR3.opus
</region>

<region>
end=47000
fade_out=46150
hivel=127
key=F5
lovel=0
offset=1024
sample=Cellos_staccato_FF_F5_RR3.opus
</region>

<region>
end=49277
fade_out=48427
hivel=127
key=G#2
lovel=0
offset=754
sample=Cellos_staccato_FF_G#2_RR3.opus
</region>

<region>
end=48075
fade_out=47225
hivel=127
key=G#3
lovel=0
sample=Cellos_staccato_FF_G#3_RR3.opus
</region>

<region>
end=47000
fade_out=46150
hivel=127
key=G#4
lovel=0
offset=718
sample=Cellos_staccato_FF_G#4_RR3.opus
</region>

<region>
end=48948
fade_out=48098
hivel=127
key=G2
lovel=0
offset=1597
sample=Cellos_staccato_FF_G2_RR3.opus
</region>

<region>
end=49941
fade_out=49091
hivel=127
key=G3
lovel=0
offset=2467
sample=Cellos_staccato_FF_G3_RR3.opus
</region>

<region>
fade_out=46480
hivel=127
key=G4
lovel=0
offset=2499
sample=Cellos_staccato_FF_G4_RR3.opus
</region>

<region>
end=48418
fade_out=47568
hikey=F6
hivel=127
lokey=G5
lovel=0
offset=617
pitch_keycenter=G5
sample=Cellos_staccato_FF_G5_RR3.opus
</region>
</group>

<group>
group_label=RR4_0-42
seq_length=4
seq_position=4
xf_cccurve=gain
xfin_hicc1=42
xfout_hicc1=84
xfout_locc1=42

<region>
end=48993
fade_out=48143
hivel=127
key=A#2
lovel=0
sample=Cellos_staccato_PP_A#2_RR4.opus
</region>

<region>
end=48183
fade_out=47333
hivel=127
key=A#3
lovel=0
offset=1940
sample=Cellos_staccato_PP_A#3_RR4.opus
</region>

<region>
end=48939
fade_out=48089
hivel=127
key=A#4
lovel=0
offset=2420
sample=Cellos_staccato_PP_A#4_RR4.opus
</region>

<region>
end=49006
fade_out=48156
hivel=127
key=A2
lovel=0
offset=2097
sample=Cellos_staccato_PP_A2_RR4.opus
</region>

<region>
end=48907
fade_out=48057
hivel=127
key=A3
lovel=0
offset=1979
sample=Cellos_staccato_PP_A3_RR4.opus
</region>

<region>
end=48802
fade_out=47952
hivel=127
key=A4
lovel=0
offset=1278
sample=Cellos_staccato_PP_A4_RR4.opus
</region>

<region>
end=48336
fade_out=47486
hivel=127
key=B2
lovel=0
offset=1626
sample=Cellos_staccato_PP_B2_RR4.opus
</region>

<region>
end=48599
fade_out=47749
hivel=127
key=B3
lovel=0
sample=Cellos_staccato_PP_B3_RR4.opus
</region>

<region>
end=48707
fade_out=47857
hivel=127
key=B4
lovel=0
offset=1135
sample=Cellos_staccato_PP_B4_RR4.opus
</region>

<region>
end=48216
fade_out=47366
hivel=127
key=C#2
lovel=0
offset=1603
sample=Cellos_staccato_PP_C#2_RR4.opus
</region>

<region>
end=48128
fade_out=47278
hivel=127
key=C#3
lovel=0
offset=1606
sample=Cellos_staccato_PP_C#3_RR4.opus
</region>

<region>
end=47000
fade_out=46150
hivel=127
key=C#4
lovel=0
sample=Cellos_staccato_PP_C#4_RR4.opus
</region>

<region>
end=48297
fade_out=47447
hivel=127
key=C#5
lovel=0
offset=1467
sample=Cellos_staccato_PP_C#5_RR4.opus
</region>

<region>
end=47000
fade_out=46150
hivel=127
key=C2
lovel=0
offset=2636
sample=Cellos_staccato_PP_C2_RR4.opus
</region>

<region>
end=47989
fade_out=47139
hivel=127
key=C3
lovel=0
sample=Cellos_staccato_PP_C3_RR4.opus
</region>

<region>
end=47000
fade_out=46150
hivel=127
key=C4
lovel=0
sample=Cellos_staccato_PP_C4_RR4.opus
</region>

<region>
end=48065
fade_out=47215
hivel=127
key=C5
lovel=0
offset=1370
sample=Cellos_staccato_PP_C5_RR4.opus
</region>

<region>
end=48158
fade_out=47308
hivel=127
key=D#2
lovel=0
sample=Cellos_staccato_PP_D#2_RR4.opus
</region>

<region>
end=48433
fade_out=47583
hivel=127
key=D#3
lovel=0
offset=2486
sample=Cellos_staccato_PP_D#3_RR4.opus
</region>

<region>
end=49025
fade_out=48175
hivel=127
key=D#4
lovel=0
offset=1701
sample=Cellos_staccato_PP_D#4_RR4.opus
</region>

<region>
end=47000
fade_out=46150
hivel=127
key=D#5
lovel=0
offset=1004
sample=Cellos_staccato_PP_D#5_RR4.opus
</region>

<region>
end=48245
fade_out=47395
hivel=127
key=D2
lovel=0
sample=Cellos_staccato_PP_D2_RR4.opus
</region>

<region>
end=48318
fade_out=47468
hivel=127
key=D3
lovel=0
offset=3222
sample=Cellos_staccato_PP_D3_RR4.opus
</region>

<region>
end=47000
fade_out=46150
hivel=127
key=D4
lovel=0
offset=1368
sample=Cellos_staccato_PP_D4_RR4.opus
</region>

<region>
end=47000
fade_out=46150
hivel=127
key=D5
lovel=0
offset=2112
sample=Cellos_staccato_PP_D5_RR4.opus
</region>

<region>
end=48917
fade_out=48067
hivel=127
key=E2
lovel=0
offset=1253
sample=Cellos_staccato_PP_E2_RR4.opus
</region>

<region>
end=48384
fade_out=47534
hivel=127
key=E3
lovel=0
offset=911
sample=Cellos_staccato_PP_E3_RR4.opus
</region>

<region>
end=49194
fade_out=48344
hivel=127
key=E4
lovel=0
offset=1582
sample=Cellos_staccato_PP_E4_RR4.opus
</region>

<region>
end=47000
fade_out=46150
hivel=127
key=E5
lovel=0
offset=924
sample=Cellos_staccato_PP_E5_RR4.opus
</region>

<region>
end=48719
fade_out=47869
hivel=127
key=F#2
lovel=0
offset=1429
sample=Cellos_staccato_PP_F#2_RR4.opus
</region>

<region>
end=47843
fade_out=46993
hivel=127
key=F#3
lovel=0
offset=1838
sample=Cellos_staccato_PP_F#3_RR4.opus
</region>

<region>
end=48153
fade_out=47303
hivel=127
key=F#4
lovel=0
offset=1444
sample=Cellos_staccato_PP_F#4_RR4.opus
</region>

<region>
end=47000
fade_out=46150
hivel=127
key=F#5
lovel=0
sample=Cellos_staccato_PP_F#5_RR4.opus
</region>

<region>
end=48465
fade_out=47615
hivel=127
key=F2
lovel=0
offset=1429
sample=Cellos_staccato_PP_F2_RR4.opus
</region>

<region>
end=48012
fade_out=47162
hivel=127
key=F3
lovel=0
offset=1318
sample=Cellos_staccato_PP_F3_RR4.opus
</region>

<region>
end=48329
fade_out=47479
hivel=127
key=F4
lovel=0
offset=1582
sample=Cellos_staccato_PP_F4_RR4.opus
</region>

<region>
end=47000
fade_out=46150
hivel=127
key=F5
lovel=0
sample=Cellos_staccato_PP_F5_RR4.opus
</region>

<region>
end=48609
fade_out=47759
hivel=127
key=G#2
lovel=0
offset=2097
sample=Cellos_staccato_PP_G#2_RR4.opus
</region>

<region>
end=48480
fade_out=47630
hivel=127
key=G#3
lovel=0
sample=Cellos_staccato_PP_G#3_RR4.opus
</region>

<region>
end=47000
fade_out=46150
hivel=127
key=G#4
lovel=0
offset=770
sample=Cellos_staccato_PP_G#4_RR4.opus
</region>

<region>
end=48811
fade_out=47961
hivel=127
key=G2
lovel=0
offset=1368
sample=Cellos_staccato_PP_G2_RR4.opus
</region>

<region>
end=48800
fade_out=47950
hivel=127
key=G3
lovel=0
offset=1844
sample=Cellos_staccato_PP_G3_RR4.opus
</region>

<region>
end=49417
fade_out=48567
hivel=127
key=G4
lovel=0
offset=1444
sample=Cellos_staccato_PP_G4_RR4.opus
</region>

<region>
end=47000
fade_out=46150
hikey=F6
hivel=127
lokey=G5
lovel=0
pitch_keycenter=G5
sample=Cellos_staccato_PP_G5_RR4.opus
</region>
</group>

<group>
group_label=RR4_43-84
seq_length=4
seq_position=4
xf_cccurve=gain
xfin_hicc1=84
xfin_locc1=43
xfout_hicc1=125
xfout_locc1=84

<region>
end=47000
fade_out=46150
hivel=127
key=A#2
lovel=0
offset=2682
sample=Cellos_staccato_MF_A#2_RR4.opus
</region>

<region>
end=47000
fade_out=46150
hivel=127
key=A#3
lovel=0
offset=2794
sample=Cellos_staccato_MF_A#3_RR4.opus
</region>

<region>
end=49522
fade_out=48672
hivel=127
key=A#4
lovel=0
offset=2433
sample=Cellos_staccato_MF_A#4_RR4.opus
</region>

<region>
end=48695
fade_out=47845
hivel=127
key=A2
lovel=0
offset=2450
sample=Cellos_staccato_MF_A2_RR4.opus
</region>

<region>
end=47000
fade_out=46150
hivel=127
key=A3
lovel=0
offset=1535
sample=Cellos_staccato_MF_A3_RR4.opus
</region>

<region>
end=47000
fade_out=46150
hivel=127
key=A4
lovel=0
offset=553
sample=Cellos_staccato_MF_A4_RR4.opus
</region>

<region>
end=47000
fade_out=46150
hivel=127
key=B2
lovel=0
offset=2192
sample=Cellos_staccato_MF_B2_RR4.opus
</region>

<region>
end=47000
fade_out=46150
hivel=127
key=B3
lovel=0
offset=1408
sample=Cellos_staccato_MF_B3_RR4.opus
</region>

<region>
end=49186
fade_out=48336
hivel=127
key=B4
lovel=0
offset=1576
sample=Cellos_staccato_MF_B4_RR4.opus
</region>

<region>
end=47000
fade_out=46150
hivel=127
key=C#2
lovel=0
offset=1992
sample=Cellos_staccato_MF_C#2_RR4.opus
</region>

<region>
end=47000
fade_out=46150
hivel=127
key=C#3
lovel=0
offset=2166
sample=Cellos_staccato_MF_C#3_RR4.opus
</region>

<region>
end=48378
fade_out=47528
hivel=127
key=C#4
lovel=0
offset=574
sample=Cellos_staccato_MF_C#4_RR4.opus
</region>

<region>
end=47000
fade_out=46150
hivel=127
key=C#5
lovel=0
offset=719
sample=Cellos_staccato_MF_C#5_RR4.opus
</region>

<region>
end=47000
fade_out=46150
hivel=127
key=C2
lovel=0
offset=1956
sample=Cellos_staccato_MF_C2_RR4.opus
</region>

<region>
end=47000
fade_out=46150
hivel=127
key=C3
lovel=0
offset=1614
sample=Cellos_staccato_MF_C3_RR4.opus
</region>

<region>
end=49249
fade_out=48399
hivel=127
key=C4
lovel=0
sample=Cellos_staccato_MF_C4_RR4.opus
</region>

<region>
end=48593
fade_out=47743
hivel=127
key=C5
lovel=0
offset=739
sample=Cellos_staccato_MF_C5_RR4.opus
</region>

<region>
end=47000
fade_out=46150
hivel=127
key=D#2
lovel=0
offset=809
sample=Cellos_staccato_MF_D#2_RR4.opus
</region>

<region>
end=47000
fade_out=46150
hivel=127
key=D#3
lovel=0
offset=900
sample=Cellos_staccato_MF_D#3_RR4.opus
</region>

<region>
end=47000
fade_out=46150
hivel=127
key=D#4
lovel=0
offset=596
sample=Cellos_staccato_MF_D#4_RR4.opus
</region>

<region>
end=47000
fade_out=46150
hivel=127
key=D#5
lovel=0
offset=822
sample=Cellos_staccato_MF_D#5_RR4.opus
</region>

<region>
end=47000
fade_out=46150
hivel=127
key=D2
lovel=0
offset=1735
sample=Cellos_staccato_MF_D2_RR4.opus
</region>

<region>
end=47000
fade_out=46150
hivel=127
key=D3
lovel=0
offset=1093
sample=Cellos_staccato_MF_D3_RR4.opus
</region>

<region>
end=48788
fade_out=47938
hivel=127
key=D4
lovel=0
offset=1258
sample=Cellos_staccato_MF_D4_RR4.opus
</region>

<region>
end=47000
fade_out=46150
hivel=127
key=D5
lovel=0
offset=2882
sample=Cellos_staccato_MF_D5_RR4.opus
</region>

<region>
end=47000
fade_out=46150
hivel=127
key=E2
lovel=0
offset=1769
sample=Cellos_staccato_MF_E2_RR4.opus
</region>

<region>
end=47000
fade_out=46150
hivel=127
key=E3
lovel=0
offset=621
sample=Cellos_staccato_MF_E3_RR4.opus
</region>

<region>
end=48891
fade_out=48041
hivel=127
key=E4
lovel=0
offset=2527
sample=Cellos_staccato_MF_E4_RR4.opus
</region>

<region>
end=48825
fade_out=47975
hivel=127
key=E5
lovel=0
offset=2893
sample=Cellos_staccato_MF_E5_RR4.opus
</region>

<region>
end=47000
fade_out=46150
hivel=127
key=F#2
lovel=0
offset=2287
sample=Cellos_staccato_MF_F#2_RR4.opus
</region>

<region>
end=47000
fade_out=46150
hivel=127
key=F#3
lovel=0
offset=2301
sample=Cellos_staccato_MF_F#3_RR4.opus
</region>

<region>
end=47000
fade_out=46150
hivel=127
key=F#4
lovel=0
sample=Cellos_staccato_MF_F#4_RR4.opus
</region>

<region>
end=47000
fade_out=46150
hivel=127
key=F#5
lovel=0
sample=Cellos_staccato_MF_F#5_RR4.opus
</region>

<region>
end=47000
fade_out=46150
hivel=127
key=F2
lovel=0
offset=608
sample=Cellos_staccato_MF_F2_RR4.opus
</region>

<region>
end=47000
fade_out=46150
hivel=127
key=F3
lovel=0
offset=924
sample=Cellos_staccato_MF_F3_RR4.opus
</region>

<region>
end=47000
fade_out=46150
hivel=127
key=F4
lovel=0
offset=671
sample=Cellos_staccato_MF_F4_RR4.opus
</region>

<region>
end=48063
fade_out=47213
hivel=127
key=F5
lovel=0
sample=Cellos_staccato_MF_F5_RR4.opus
</region>

<region>
end=47000
fade_out=46150
hivel=127
key=G#2
lovel=0
offset=2355
sample=Cellos_staccato_MF_G#2_RR4.opus
</region>

<region>
end=47000
fade_out=46150
hivel=127
key=G#3
lovel=0
offset=1956
sample=Cellos_staccato_MF_G#3_RR4.opus
</region>

<region>
end=47000
fade_out=46150
hivel=127
key=G#4
lovel=0
offset=723
sample=Cellos_staccato_MF_G#4_RR4.opus
</region>

<region>
end=47000
fade_out=46150
hivel=127
key=G2
lovel=0
offset=417
sample=Cellos_staccato_MF_G2_RR4.opus
</region>

<region>
end=47000
fade_out=46150
hivel=127
key=G3
lovel=0
sample=Cellos_staccato_MF_G3_RR4.opus
</region>

<region>
end=48709
fade_out=47859
hivel=127
key=G4
lovel=0
offset=1686
sample=Cellos_staccato_MF_G4_RR4.opus
</region>

<region>
end=48911
fade_out=48061
hikey=F6
hivel=127
lokey=G5
lovel=0
offset=712
pitch_keycenter=G5
sample=Cellos_staccato_MF_G5_RR4.opus
</region>
</group>

<group>
group_label=RR4_85-127
seq_length=4
seq_position=4
xf_cccurve=gain
xfin_hicc1=127
xfin_locc1=85
xfout_hicc1=127
xfout_locc1=127

<region>
end=47000
fade_out=46150
hivel=127
key=A#2
lovel=0
offset=2217
sample=Cellos_staccato_FF_A#2_RR4.opus
</region>

<region>
end=47000
fade_out=46150
hivel=127
key=A#3
lovel=0
offset=680
sample=Cellos_staccato_FF_A#3_RR4.opus
</region>

<region>
end=47000
fade_out=46150
hivel=127
key=A#4
lovel=0
offset=3573
sample=Cellos_staccato_FF_A#4_RR4.opus
</region>

<region>
end=47000
fade_out=46150
hivel=127
key=A2
lovel=0
offset=1631
sample=Cellos_staccato_FF_A2_RR4.opus
</region>

<region>
end=49237
fade_out=48387
hivel=127
key=A3
lovel=0
offset=1143
sample=Cellos_staccato_FF_A3_RR4.opus
</region>

<region>
end=47000
fade_out=46150
hivel=127
key=A4
lovel=0
offset=711
sample=Cellos_staccato_FF_A4_RR4.opus
</region>

<region>
end=47000
fade_out=46150
hivel=127
key=B2
lovel=0
offset=604
sample=Cellos_staccato_FF_B2_RR4.opus
</region>

<region>
end=47591
fade_out=46741
hivel=127
key=B3
lovel=0
offset=1528
sample=Cellos_staccato_FF_B3_RR4.opus
</region>

<region>
end=47000
fade_out=46150
hivel=127
key=B4
lovel=0
offset=4050
sample=Cellos_staccato_FF_B4_RR4.opus
</region>

<region>
end=47000
fade_out=46150
hivel=127
key=C#2
lovel=0
sample=Cellos_staccato_FF_C#2_RR4.opus
</region>

<region>
end=47000
fade_out=46150
hivel=127
key=C#3
lovel=0
offset=1686
sample=Cellos_staccato_FF_C#3_RR4.opus
</region>

<region>
end=47000
fade_out=46150
hivel=127
key=C#4
lovel=0
offset=2276
sample=Cellos_staccato_FF_C#4_RR4.opus
</region>

<region>
end=47000
fade_out=46150
hivel=127
key=C#5
lovel=0
offset=2549
sample=Cellos_staccato_FF_C#5_RR4.opus
</region>

<region>
end=47000
fade_out=46150
hivel=127
key=C2
lovel=0
sample=Cellos_staccato_FF_C2_RR4.opus
</region>

<region>
end=47000
fade_out=46150
hivel=127
key=C3
lovel=0
offset=733
sample=Cellos_staccato_FF_C3_RR4.opus
</region>

<region>
end=47377
fade_out=46527
hivel=127
key=C4
lovel=0
sample=Cellos_staccato_FF_C4_RR4.opus
</region>

<region>
end=47000
fade_out=46150
hivel=127
key=C5
lovel=0
offset=747
sample=Cellos_staccato_FF_C5_RR4.opus
</region>

<region>
end=47000
fade_out=46150
hivel=127
key=D#2
lovel=0
offset=2450
sample=Cellos_staccato_FF_D#2_RR4.opus
</region>

<region>
end=47000
fade_out=46150
hivel=127
key=D#3
lovel=0
offset=1251
sample=Cellos_staccato_FF_D#3_RR4.opus
</region>

<region>
end=47000
fade_out=46150
hivel=127
key=D#4
lovel=0
offset=707
sample=Cellos_staccato_FF_D#4_RR4.opus
</region>

<region>
end=47000
fade_out=46150
hivel=127
key=D#5
lovel=0
offset=2298
sample=Cellos_staccato_FF_D#5_RR4.opus
</region>

<region>
end=47000
fade_out=46150
hivel=127
key=D2
lovel=0
sample=Cellos_staccato_FF_D2_RR4.opus
</region>

<region>
end=47000
fade_out=46150
hivel=127
key=D3
lovel=0
offset=843
sample=Cellos_staccato_FF_D3_RR4.opus
</region>

<region>
end=48600
fade_out=47750
hivel=127
key=D4
lovel=0
sample=Cellos_staccato_FF_D4_RR4.opus
</region>

<region>
end=47000
fade_out=46150
hivel=127
key=D5
lovel=0
offset=3760
sample=Cellos_staccato_FF_D5_RR4.opus
</region>

<region>
end=47000
fade_out=46150
hivel=127
key=E2
lovel=0
offset=1409
sample=Cellos_staccato_FF_E2_RR4.opus
</region>

<region>
end=48910
fade_out=48060
hivel=127
key=E3
lovel=0
offset=2437
sample=Cellos_staccato_FF_E3_RR4.opus
</region>

<region>
end=47000
fade_out=46150
hivel=127
key=E4
lovel=0
offset=1215
sample=Cellos_staccato_FF_E4_RR4.opus
</region>

<region>
end=47000
fade_out=46150
hivel=127
key=E5
lovel=0
offset=628
sample=Cellos_staccato_FF_E5_RR4.opus
</region>

<region>
end=47000
fade_out=46150
hivel=127
key=F#2
lovel=0
offset=890
sample=Cellos_staccato_FF_F#2_RR4.opus
</region>

<region>
end=47000
fade_out=46150
hivel=127
key=F#3
lovel=0
offset=774
sample=Cellos_staccato_FF_F#3_RR4.opus
</region>

<region>
end=47000
fade_out=46150
hivel=127
key=F#4
lovel=0
offset=1093
sample=Cellos_staccato_FF_F#4_RR4.opus
</region>

<region>
end=47000
fade_out=46150
hivel=127
key=F#5
lovel=0
sample=Cellos_staccato_FF_F#5_RR4.opus
</region>

<region>
end=47000
fade_out=46150
hivel=127
key=F2
lovel=0
sample=Cellos_staccato_FF_F2_RR4.opus
</region>

<region>
end=47000
fade_out=46150
hivel=127
key=F3
lovel=0
offset=592
sample=Cellos_staccato_FF_F3_RR4.opus
</region>

<region>
end=47000
fade_out=46150
hivel=127
key=F4
lovel=0
offset=687
sample=Cellos_staccato_FF_F4_RR4.opus
</region>

<region>
end=47000
fade_out=46150
hivel=127
key=F5
lovel=0
offset=947
sample=Cellos_staccato_FF_F5_RR4.opus
</region>

<region>
end=47000
fade_out=46150
hivel=127
key=G#2
lovel=0
offset=707
sample=Cellos_staccato_FF_G#2_RR4.opus
</region>

<region>
end=48545
fade_out=47695
hivel=127
key=G#3
lovel=0
offset=782
sample=Cellos_staccato_FF_G#3_RR4.opus
</region>

<region>
end=47000
fade_out=46150
hivel=127
key=G#4
lovel=0
offset=584
sample=Cellos_staccato_FF_G#4_RR4.opus
</region>

<region>
end=47000
fade_out=46150
hivel=127
key=G2
lovel=0
offset=1236
sample=Cellos_staccato_FF_G2_RR4.opus
</region>

<region>
end=49409
fade_out=48559
hivel=127
key=G3
lovel=0
offset=1812
sample=Cellos_staccato_FF_G3_RR4.opus
</region>

<region>
end=45825
fade_out=44975
hivel=127
key=G4
lovel=0
offset=3599
sample=Cellos_staccato_FF_G4_RR4.opus
</region>

<region>
end=47000
fade_out=46150
hikey=F6
hivel=127
lokey=G5
lovel=0
offset=638
pitch_keycenter=G5
sample=Cellos_staccato_FF_G5_RR4.opus
</region>
</group>